<?xml version="1.0" encoding="UTF-8"?>
<svg id="Layer_1" data-name="Layer 1" xmlns="http://www.w3.org/2000/svg" viewBox="0 0 1024 1024">
  <defs>
    <style>
      .cls-1 {
        fill: #fff;
      }
    </style>
  </defs>
  <path class="cls-1" d="m992,1024H202.05c.08-2.49.24-4.98.24-7.47-.01-53.65-.07-107.3-.06-160.96.01-238.97.04-477.93.06-716.9,0-2.12,0-4.24,0-6.9,253.08.5,505.57,1.01,758.82,1.51v875.07c6.22,0,11.68-.11,17.14.02,14.83.36,14.82.4,13.76,15.63Zm-390.86-584.97c.95-1.02,1.13-1.36,1.4-1.48,12.53-5.29,25.04-10.63,37.65-15.74,1.32-.53,3.24.04,4.77.49,7.95,2.33,15.79,5.14,23.82,7.14,18.44,4.6,37.31,7.1,56.24,6.54,15.35-.46,30.9-2.06,45.86-5.39,11.29-2.51,21.91-8.3,32.61-13.12,12.48-5.62,23.2-13.68,32.09-24.24,4.5-5.34,6.16-10.12,2.85-17.1-6.13-12.93-19.78-16.44-30.42-6.93-1.36,1.21-2.7,2.5-3.8,3.95-5.27,6.92-12.49,11.39-19.93,15.37-17.84,9.56-37.17,12.95-57.23,13.29-18.44.31-36.46-2.43-53.97-7.89-11.55-3.6-23.48-7.07-33.87-13-16.5-9.42-31.77-20.97-47.72-31.38-17.14-11.19-35.9-13.24-54.04-4.5-13.88,6.69-26.63,16.07-39.01,25.41-14.54,10.97-30.57,18.69-47.54,24.57-35.15,12.16-70.65,15.6-106.47,2.57-12.34-4.49-23.53-10.72-32.6-20.49-3.33-3.59-6.76-7.12-12.15-8.1-8.63-1.57-15.69,1.45-20.08,9.31-3.48,6.23-2.84,16,2.07,20.58,6.03,5.61,12.11,11.39,18.99,15.83,23.87,15.42,50.2,24.07,78.6,25.61,29.89,1.62,58.94-3.01,87.17-13.09,3.16-1.13,7.19-.92,10.55-.17,4.65,1.05,9.04,3.23,13.56,4.87,6.16,2.25,12.34,4.45,18.51,6.67-8.27,4.54-16.28,8.09-24.48,11.12-17.88,6.63-35.63,13.76-53.85,19.29-23.65,7.17-48.05,10.56-72.86,9.17-13.64-.76-26.98-3.05-39.68-8.73-6.43-2.88-13.37-5.08-20.31-6.27-9.66-1.65-20.18,10.19-18.17,19.94,1.6,7.74,6.09,13.7,13.37,16.95,21.58,9.64,44.48,13.94,67.89,13.86,30.71-.1,60.84-4.84,89.9-15.36,9.64-3.49,18-1.72,25.37,5.98,4.89,5.12,10.62,9.49,16.26,13.83,18.14,13.95,38.45,22.25,61.57,22.81,14.25.35,28.26-1.3,41.38-7.14,10.32-4.6,19.74-10.6,27.99-18.63,7.92-7.72,16.74-14.52,25.24-21.63.72-.6,2.11-.88,3.05-.66,4.69,1.07,9.39,2.18,13.99,3.59,24.42,7.47,49.43,11.95,74.9,12.72,14.56.44,29.3-.39,43.75-2.25,15.7-2.02,30.88-6.92,44.18-15.9,5.14-3.47,9.09-9.19,8.05-15.58-1.81-11.13-8.87-17.45-20.11-18.79-2.12-.25-4.91.19-6.53,1.44-10.64,8.17-23.37,11.19-35.91,13.98-19.54,4.35-39.41,2.83-59.01-.02-22.15-3.23-43.97-8.16-65.05-15.91-6.24-2.29-12.42-4.74-18.68-6.96-9.84-3.48-19.73-6.83-30.16-10.43Zm121.05,340.78c3.52-3.11,7.5-6.35,11.14-9.93,6.39-6.28,12.72-12.68,15.18-21.71,4.76-17.44-2.79-40.44-22.83-49.65-11.9-5.47-23.87-4.47-35.25.7-6.82,3.1-12.79,8.09-19.05,12.37-14.84,10.16-29.72,20.27-44.34,30.75-2.65,1.9-3.73,5.88-6.2,8.19-7.63,7.11-9.33,16.32-9.07,25.87.27,10.09,4.7,18.47,11.46,26.27,9.01,10.4,20.08,14.14,33.06,13.22,12.38-.88,23.41-5.35,32.93-13.68,5.45-4.77,7.43-4.15,11.83,1.14,7.17,8.62,13.64,18.05,21.93,25.4,5.3,4.7,8.73,10.66,13.84,15.27,1.61,1.45,3.17,2.97,4.75,4.46-.15.42-.3.85-.45,1.27-1.75,0-3.51,0-5.26,0-37.66,0-75.31-.01-112.97,0-4.98,0-7.44,2.15-7.57,6.49-.13,4,2.71,6.52,7.67,6.5,24.66-.09,49.32-.26,73.98-.35,14.42-.05,28.84,0,44.01,0-1.22,1.38-1.92,2.22-2.66,3.02-5.58,6.04-11.31,11.95-16.7,18.15-8.15,9.38-16.04,18.98-24.1,28.44-2.27,2.66-4.74,2.95-7.89.97-5.77-3.62-11.65-7.13-17.74-10.16-12-5.97-24.31-8.04-36.68-.95-14.97,8.58-23.53,21.18-23.66,38.84-.09,13.17,8.05,22.86,14.26,33.35.46.78,1.57,1.19,2.41,1.72,2.35,1.5,4.78,2.88,7.06,4.47,4.89,3.43,9.56,7.18,14.57,10.41,11.27,7.27,23,13.86,33.98,21.52,19.2,13.39,41.07,14.35,57.07-5.65,11.41-14.25,14.79-30.91,3.03-49.53-3.77-5.96-7.61-12.04-14.05-15.9-3.32-1.99-6.04-4.96-9.15-7.6,16.67-18.88,32.94-37.31,49.42-55.98,17.13,18.29,33.81,36.09,50.61,54.02-1.16,1.03-1.8,1.55-2.38,2.12-6.84,6.74-15.73,10.74-20.97,19.91-7.32,12.8-6.21,26.87.5,38.77,4.47,7.93,9.7,14.74,18.13,19.17,8.69,4.56,17.32,8.2,27.03,4.75,7-2.49,13.91-5.53,20.36-9.21,9.02-5.15,17.61-11.05,26.3-16.76,7.36-4.83,14.96-9.39,21.8-14.89,7.98-6.41,15.47-13.31,18.25-24.08,4.01-15.55,3.01-29.46-8.75-41.79-10.49-10.99-22.82-16.5-37.87-14.8-5.33.6-10.78,2.3-15.61,4.66-6.18,3.03-11.69,7.43-17.73,10.8-1.34.75-4.35.38-5.46-.67-5.87-5.56-11.44-11.44-17.01-17.32-5.54-5.85-11-11.77-16.4-17.75-3.94-4.36-7.72-8.86-11.95-13.74,1.34-.23,1.96-.43,2.57-.43,26.97-.17,53.93-.35,80.9-.48,13.82-.07,27.65-.02,41.47-.08,5.34-.02,7.65-2,7.67-6.34.01-4.91-1.9-6.59-7.61-6.57-38.32.18-76.64.37-114.95.56-2.06.01-4.12,0-7.19,0,1.74-2.39,2.78-4.04,4.03-5.5,13.3-15.4,26.68-30.74,39.9-46.21,1.86-2.18,3.35-2.24,5.46-.76,5.08,3.56,10.22,7.03,15.28,10.61,13.36,9.42,36.17,7.21,50.48-2.46,15.58-10.54,19.04-35.94,11.67-50.69-7.97-15.95-22.29-24.48-36.42-33.39-9.93-6.26-20.15-12.05-30.12-18.24-8.32-5.17-17.02-8.95-26.99-9.17-16.19-.37-27.81,7.17-35.7,20.85-4.73,8.21-7.27,16.96-6.28,26.69,1.34,13.23,9.61,21.62,19.24,29.23,2.93,2.32,5.97,4.5,9.42,7.1-17.17,19.29-34.01,38.21-50.93,57.23-16.36-17.76-32.3-35.06-48.68-52.84Zm-101.58-568.19c-1.06-1.57-2.37-2.93-2.99-4.55-3.94-10.16-13.74-15.39-19.8-23.77-1.01-1.39-2.83-2.34-4.45-3.12-3.58-1.72-7.33-3.09-10.93-4.78-12.46-5.87-25.6-7.2-38.91-4.69-6.19,1.17-11.92,4.61-18.02,6.47-10.63,3.23-17.38,11.77-25.45,18.4-3.11,2.55-4.84,7.14-6.31,11.13-.57,1.54,1.19,4.07,2.23,5.96.21.38,2.37.33,2.92-.23,2.66-2.68,5.64-5.28,7.48-8.5,5.99-10.49,16.56-15.42,26.33-20.39,9.18-4.68,20.04-6.42,30.59-4.2,15.96,3.36,30.74,8.88,39.41,24.39,3.48,6.23,10.87,9.18,17.9,7.88Z"/>
  <path d="m992,1024c1.07-15.23,1.07-15.27-13.76-15.63-5.45-.13-10.92-.02-17.14-.02V133.28c-253.26-.5-505.74-1.01-758.82-1.51,0,2.66,0,4.78,0,6.9-.02,238.97-.05,477.93-.06,716.9,0,53.65.05,107.3.06,160.96,0,2.49-.16,4.98-.24,7.47h-32v-25.88c-46.28,15.6-91.49,14.31-136.99-5.03v30.91H2.07c-.08-1.83-.24-3.65-.24-5.48,0-41.5,0-83,0-124.49.02-290.82.02-581.64.2-872.46C2.02,14.38,4.01,7.19,5.07,0,19.4,0,33.73,0,48.06,0c-2.2,3.72-4.84,7.24-6.5,11.18-5.2,12.32-6.76,24.6,1.17,36.66,7.88,12,19.61,19.14,31.94,25.3,7.38,3.69,15.41,6.06,23.13,9.06,19.24,7.49,39.43,10.85,59.81,11.83,25.1,1.21,50.28,1.06,75.43,1.1,119.3.19,238.59.25,357.89.35,115.8.09,231.59.09,347.39.43,9.33.03,18.76,1.92,27.96,3.8,15.54,3.18,28.87,11.06,40.05,22.07,6.53,6.42,11.82,14.1,17.67,21.22v747c-.18,2.3-.51,4.6-.51,6.9-.08,33.57-.13,67.14-.12,100.71,0,3.46.41,6.93.64,10.39v16h-32ZM170.3,132.7c-21.96-3.76-43.19-6.59-64-11.25-13.47-3.02-26.82-7.69-39.34-13.52-11.72-5.47-22.26-13.45-33.39-20.37,0,.01-.27.61-.27,1.2-.09,37.99-.19,75.98-.12,113.98,0,1.61,1.22,3.89,2.57,4.74,15.72,9.87,32.72,17.14,50.72,21.26,25.07,5.73,50.4,8.77,75.85,1.23,7.81-2.32,7.94-1.94,7.95-10,.02-27.66.02-55.32.03-82.99,0-1.65,0-3.3,0-4.27Zm822.63,29.11v846.23h16.3c0-2.24,0-4.05,0-5.85.08-33.33.23-66.66.24-99.99.11-219.97.3-439.94.04-659.92-.02-16.49-2.96-33.02-5.21-49.44-1.51-11.01-5.42-21.42-11.38-31.03ZM33.29,242.59c0,18.51-.03,35.98.07,53.44,0,1.1.73,2.75,1.61,3.22,7.02,3.75,13.88,8.09,21.32,10.72,17.3,6.12,35.18,9.83,53.68,9.8,17.18-.03,34.2-1.17,50.62-6.85,9.71-3.36,9.73-3.32,9.72-13.47,0-3.16,0-6.33,0-9.49,0-8.29,0-16.57,0-25.5-48.87,12.58-93.55,1.99-137.01-21.87Zm.57,158.99c-.22,12.69-.5,23.93-.5,35.17,0,1.29,1.32,2.94,2.48,3.8,12.33,9.09,26.85,13.31,41.34,16.65,16.67,3.84,33.91,5.43,51.01,3.26,10.96-1.39,21.91-3.87,32.46-7.17,9.89-3.09,9.65-3.85,9.65-14.31,0-9.41,0-18.82,0-27.94-46.15,9.92-91.08,10.32-136.45-9.46Zm-.52,139.3c0,11.72-.09,22.5.14,33.26.02,1.14,1.78,2.59,3.06,3.3,12.12,6.68,24.78,11.83,38.43,14.72,20.7,4.38,41.4,5.96,62.32,2.14,9.97-1.82,19.99-3.62,28.85-8.98,1.58-.95,3.91-2.51,3.95-3.85.33-10.08.18-20.17.18-30.54-46.88,13.46-91.9,9.19-136.93-10.06Zm136.98,390.43c-46.5,15.99-91.65,12.01-136.75-5.93,0,6.68.64,12.41-.14,17.93-1.42,10.1,1.19,17.04,12.07,19.08.16.03.29.15.44.23,11.41,6.61,24.01,10.05,36.85,11.41,13.33,1.41,26.93,1.86,40.3.99,15.78-1.03,31.29-4.44,44.94-13.31.95-.62,2.19-1.78,2.2-2.71.17-9.1.1-18.21.1-27.69ZM33,475.13c0,10.07-.07,19.02.1,27.96.02.98,1.27,2.32,2.29,2.85,7.76,4.05,15.34,8.65,23.5,11.69,8.34,3.11,17.2,4.95,25.96,6.79,16.24,3.42,32.7,3.26,49.11,1.69,11.56-1.11,22.8-3.98,33.38-8.93,1.26-.59,2.79-2.29,2.82-3.51.24-9.29.13-18.59.13-28.68-46.9,14.52-91.97,9.81-137.29-9.86Zm137.3,328.84c-46.91,15.33-92.09,11.46-136.99-7.28,0,6.26.48,11.62-.1,16.86-1.03,9.28.52,16.47,11.39,18.04.46.07.9.43,1.32.7,11.63,7.49,24.97,9.8,38.19,12.15,15.61,2.77,31.39,3.31,47.15,1.05,12.7-1.82,25.29-4.21,36.41-11.16,1.2-.75,2.48-2.48,2.52-3.78.22-8.64.12-17.28.12-26.58Zm-.28-458.14c-46.61,12.4-91.96,10.93-136.64-10.43,0,10.96-.06,20.89.11,30.82.02.89,1.41,2.17,2.45,2.58,14.79,5.91,29.62,11.62,45.57,13.88,30.19,4.28,59.88,3.93,88.52-8.19v-28.66ZM33.6,610.78c0,10.02-.05,18.99.07,27.96.01.89.86,2.22,1.66,2.59,6.17,2.85,12.26,6.05,18.7,8.15,27.52,9,55.62,12.76,84.49,8.2,10.03-1.58,19.82-4.03,28.89-8.72,1.16-.6,2.69-1.99,2.72-3.05.22-8.75.12-17.5.12-26.36-46.69,15.43-91.72,11.73-136.66-8.76Zm0,250.88c0,9.77-.16,18.41.17,27.03.05,1.35,2.14,3.14,3.68,3.83,5.14,2.31,10.43,4.32,15.73,6.27,24.29,8.91,49.26,11.61,74.98,8.82,13.17-1.43,25.79-4.47,37.76-10.07,1.77-.83,4.27-2.63,4.35-4.09.43-7.91.2-15.85.2-23.44-46.69,14.13-91.81,11.55-136.89-8.35Zm136.74-119.41c-46.86,15.32-91.87,11.97-136.73-8.25,0,9-.12,17.13.13,25.24.04,1.21,1.53,2.9,2.77,3.48,7.78,3.63,15.43,7.76,23.57,10.33,22.39,7.09,45.42,9.75,68.87,7.32,13.12-1.36,26.08-3.6,37.66-10.48,1.51-.9,3.5-2.64,3.57-4.06.35-7.79.17-15.61.17-23.58Zm-136.49-68.21c0,8.01-.18,15.33.15,22.62.07,1.46,1.83,3.52,3.3,4.14,9.73,4.12,19.39,8.54,29.44,11.7,18.57,5.84,37.83,7.32,57.17,6.11,14.45-.9,28.69-3.52,41.7-10.42,1.85-.98,4.35-2.93,4.48-4.59.51-6.73.21-13.53.21-20.36-46.74,15.21-91.79,11.88-136.46-9.2Z"/>
  <path class="cls-1" d="m1024,143c-5.85-7.11-11.14-14.79-17.67-21.22-11.18-11-24.51-18.89-40.05-22.07-9.21-1.88-18.63-3.77-27.96-3.8-115.8-.34-231.59-.33-347.39-.43-119.3-.1-238.59-.16-357.89-.35-25.15-.04-50.33.11-75.43-1.1-20.38-.98-40.58-4.34-59.81-11.83-7.72-3.01-15.75-5.38-23.13-9.06-12.33-6.16-24.06-13.31-31.94-25.3-7.92-12.06-6.37-24.34-1.17-36.66,1.66-3.94,4.31-7.47,6.5-11.18,325.31,0,650.63,0,975.94,0v143ZM110.1,75c1.9.1,3.53.26,5.15.27,70.81.16,141.62.41,212.43.43,207.27.07,414.55.05,621.82.06,8,0,16,.06,23.99-.02,4.34-.05,6.99-2.82,6.82-6.83-.28-6.46-2.52-8.63-8.95-8.63-165.78-.14-331.56-.3-497.33-.4-116.97-.07-233.93-.07-350.9-.09q-14.13,0-13.03,15.23Zm27.5-43.85h846.18v-14.88c-2.44,0-4.57,0-6.7,0-277.11-.02-554.22-.04-831.33-.06-1.67,0-3.44-.35-4.96.12-1.22.38-2.95,1.68-3.04,2.71-.36,3.93-.14,7.91-.14,12.11Z"/>
  <path class="cls-1" d="m33.06,1024v-30.91c45.51,19.34,90.71,20.63,136.99,5.03v25.88H33.06Z"/>
  <path class="cls-1" d="m5.07,0c-1.06,7.19-3.04,14.38-3.04,21.57-.18,290.82-.17,581.64-.2,872.46,0,41.5-.01,83,0,124.49,0,1.83.16,3.65.24,5.48-.67-.33-1.78-.55-1.91-1.02-.29-1.09-.09-2.31-.09-3.48V0h5Z"/>
  <path class="cls-1" d="m1024,1008c-.22-3.46-.63-6.93-.64-10.39,0-33.57.05-67.14.12-100.71,0-2.3.33-4.6.51-6.9v118Z"/>
  <path d="m601.14,439.03c10.43,3.6,20.32,6.94,30.16,10.43,6.26,2.22,12.44,4.67,18.68,6.96,21.08,7.75,42.9,12.68,65.05,15.91,19.6,2.86,39.47,4.37,59.01.02,12.54-2.79,25.27-5.81,35.91-13.98,1.62-1.25,4.41-1.69,6.53-1.44,11.25,1.33,18.3,7.65,20.11,18.79,1.04,6.4-2.91,12.11-8.05,15.58-13.3,8.99-28.48,13.88-44.18,15.9-14.45,1.86-29.19,2.68-43.75,2.25-25.47-.76-50.48-5.24-74.9-12.72-4.6-1.41-9.3-2.52-13.99-3.59-.94-.21-2.33.06-3.05.66-8.5,7.11-17.32,13.91-25.24,21.63-8.24,8.03-17.67,14.04-27.99,18.63-13.11,5.84-27.12,7.49-41.38,7.14-23.12-.57-43.43-8.86-61.57-22.81-5.64-4.34-11.37-8.71-16.26-13.83-7.36-7.7-15.73-9.47-25.37-5.98-29.06,10.52-59.19,15.26-89.9,15.36-23.41.08-46.31-4.23-67.89-13.86-7.28-3.25-11.77-9.21-13.37-16.95-2.01-9.75,8.5-21.59,18.17-19.94,6.94,1.19,13.87,3.39,20.31,6.27,12.7,5.67,26.04,7.97,39.68,8.73,24.81,1.39,49.2-2,72.86-9.17,18.23-5.52,35.97-12.66,53.85-19.29,8.2-3.04,16.2-6.59,24.48-11.12-6.17-2.22-12.35-4.43-18.51-6.67-4.52-1.65-8.91-3.83-13.56-4.87-3.36-.76-7.38-.96-10.55.17-28.23,10.08-57.28,14.71-87.17,13.09-28.4-1.53-54.72-10.19-78.6-25.61-6.88-4.44-12.96-10.22-18.99-15.83-4.91-4.58-5.55-14.35-2.07-20.58,4.39-7.86,11.45-10.87,20.08-9.31,5.39.98,8.82,4.5,12.15,8.1,9.07,9.77,20.26,16,32.6,20.49,35.83,13.03,71.32,9.59,106.47-2.57,16.97-5.87,32.99-13.59,47.54-24.57,12.38-9.34,25.13-18.72,39.01-25.41,18.15-8.74,36.9-6.69,54.04,4.5,15.95,10.41,31.22,21.96,47.72,31.38,10.39,5.93,22.32,9.4,33.87,13,17.51,5.46,35.53,8.2,53.97,7.89,20.05-.34,39.39-3.73,57.23-13.29,7.44-3.98,14.66-8.46,19.93-15.37,1.1-1.44,2.44-2.73,3.8-3.95,10.64-9.5,24.29-6,30.42,6.93,3.31,6.99,1.66,11.76-2.85,17.1-8.9,10.56-19.61,18.62-32.09,24.24-10.7,4.81-21.32,10.6-32.61,13.12-14.96,3.33-30.51,4.93-45.86,5.39-18.93.56-37.79-1.94-56.24-6.54-8.03-2-15.87-4.8-23.82-7.14-1.53-.45-3.45-1.03-4.77-.49-12.6,5.11-25.12,10.45-37.65,15.74-.27.12-.45.46-1.4,1.48Zm-95.67,41.45c16.82,13.9,32.65,26.63,55.1,24.92,19.4-1.48,32.42-14.24,47.01-25.58-12.88-4.91-24.8-9.45-36.72-14.01-7.83-3-15.67-5.32-23.92-1.41-2.38,1.13-4.86,2.08-7.32,3.03-10.97,4.21-21.94,8.4-34.14,13.06Zm96.04-79.31c-10.11-7.05-19.73-13.67-29.24-20.44-7.16-5.09-16.88-5.76-23.63-.74-7.28,5.41-14.89,10.4-22.43,15.45-4.16,2.79-8.49,5.33-13.14,8.24,1.07.85,1.49,1.38,2.04,1.6,13.01,5.36,26.02,10.75,39.1,15.94,1.32.52,3.28.12,4.71-.44,4.6-1.8,9.14-3.78,13.62-5.87,9.45-4.41,18.84-8.93,28.97-13.74Z"/>
  <path d="m722.19,779.81c16.38,17.78,32.33,35.09,48.68,52.84,16.93-19.02,33.77-37.94,50.93-57.23-3.45-2.59-6.49-4.78-9.42-7.1-9.63-7.61-17.9-16-19.24-29.23-.99-9.74,1.55-18.49,6.28-26.69,7.88-13.68,19.51-21.22,35.7-20.85,9.97.23,18.67,4,26.99,9.17,9.97,6.2,20.19,11.98,30.12,18.24,14.13,8.91,28.44,17.44,36.42,33.39,7.38,14.75,3.92,40.15-11.67,50.69-14.31,9.68-37.12,11.88-50.48,2.46-5.07-3.57-10.21-7.05-15.28-10.61-2.11-1.48-3.59-1.42-5.46.76-13.22,15.47-26.6,30.8-39.9,46.21-1.26,1.45-2.29,3.1-4.03,5.5,3.06,0,5.12,0,7.19,0,38.32-.19,76.64-.38,114.95-.56,5.71-.03,7.63,1.66,7.61,6.57-.01,4.34-2.32,6.32-7.67,6.34-13.82.05-27.65,0-41.47.08-26.97.13-53.93.31-80.9.48-.61,0-1.23.2-2.57.43,4.24,4.88,8.02,9.39,11.95,13.74,5.4,5.98,10.86,11.9,16.4,17.75,5.57,5.88,11.13,11.76,17.01,17.32,1.11,1.05,4.12,1.42,5.46.67,6.04-3.37,11.54-7.77,17.73-10.8,4.82-2.36,10.28-4.06,15.61-4.66,15.05-1.7,27.39,3.81,37.87,14.8,11.76,12.33,12.77,26.24,8.75,41.79-2.78,10.77-10.27,17.67-18.25,24.08-6.84,5.5-14.44,10.05-21.8,14.89-8.69,5.71-17.28,11.61-26.3,16.76-6.45,3.68-13.36,6.72-20.36,9.21-9.7,3.45-18.34-.18-27.03-4.75-8.43-4.43-13.66-11.24-18.13-19.17-6.71-11.9-7.82-25.97-.5-38.77,5.24-9.18,14.13-13.17,20.97-19.91.58-.57,1.22-1.09,2.38-2.12-16.8-17.94-33.48-35.73-50.61-54.02-16.48,18.67-32.75,37.09-49.42,55.98,3.11,2.63,5.84,5.61,9.15,7.6,6.44,3.86,10.29,9.94,14.05,15.9,11.76,18.62,8.38,35.27-3.03,49.53-16,19.99-37.87,19.04-57.07,5.65-10.99-7.66-22.71-14.25-33.98-21.52-5.01-3.23-9.68-6.98-14.57-10.41-2.28-1.6-4.71-2.98-7.06-4.47-.84-.53-1.95-.94-2.41-1.72-6.21-10.49-14.35-20.18-14.26-33.35.12-17.66,8.68-30.26,23.66-38.84,12.36-7.09,24.68-5.02,36.68.95,6.09,3.03,11.97,6.55,17.74,10.16,3.15,1.97,5.63,1.69,7.89-.97,8.05-9.46,15.95-19.07,24.1-28.44,5.39-6.2,11.13-12.11,16.7-18.15.74-.8,1.44-1.64,2.66-3.02-15.17,0-29.59-.04-44.01,0-24.66.09-49.32.26-73.98.35-4.96.02-7.79-2.5-7.67-6.5.14-4.34,2.59-6.49,7.57-6.49,37.66,0,75.31,0,112.97,0,1.75,0,3.51,0,5.26,0,.15-.42.3-.85.45-1.27-1.58-1.49-3.14-3-4.75-4.46-5.11-4.6-8.54-10.57-13.84-15.27-8.3-7.36-14.77-16.79-21.93-25.4-4.4-5.29-6.38-5.91-11.83-1.14-9.52,8.33-20.55,12.81-32.93,13.68-12.98.92-24.05-2.83-33.06-13.22-6.76-7.8-11.19-16.19-11.46-26.27-.25-9.55,1.44-18.76,9.07-25.87,2.47-2.3,3.55-6.28,6.2-8.19,14.62-10.48,29.5-20.59,44.34-30.75,6.26-4.28,12.23-9.27,19.05-12.37,11.39-5.18,23.36-6.17,35.25-.7,20.04,9.21,27.59,32.21,22.83,49.65-2.46,9.03-8.79,15.43-15.18,21.71-3.64,3.58-7.62,6.82-11.14,9.93Zm196.63,157.79c.74-10.02-3.58-18.9-10.72-24.13-8.4-6.15-19-8.11-29.89-3.97-6.97,2.65-12.79,6.72-18.62,11.13-8.57,6.48-17.48,12.51-26.27,18.69-2.43,1.71-4.8,3.66-7.49,4.81-9.03,3.84-14.18,11.54-18.11,19.62-2.03,4.18-1.6,10.01-.96,14.93,1.01,7.78,6.09,13.41,11.93,18.39,8.66,7.39,18.56,8.71,28.36,3.98,9.8-4.72,19.02-10.75,28.1-16.81,10.15-6.77,19.58-14.64,29.84-21.24,9.54-6.14,13.4-14.7,13.83-25.41Zm-82.15-232.31c-12.34-.9-20.65,5.68-25.92,15.85-6.26,12.1-5.26,21.38,3.65,31.08,3.55,3.87,7.79,7.23,12.12,10.24,15.48,10.76,31.02,21.44,46.76,31.81,10.04,6.61,21.02,7.58,31.64,1.77,16.83-9.2,20.31-34.82,3.21-49.06-7.19-5.99-15.56-10.57-23.32-15.9-4.49-3.08-8.72-6.55-13.28-9.51-5.23-3.4-10.93-6.13-16.01-9.73-5.71-4.06-11.52-7.2-18.85-6.55Zm-211.39,236.73c-.77,8.87,3.17,16.69,11.12,22.51,6.09,4.46,12.29,8.79,18.54,13.03,7.49,5.08,15.12,9.98,22.64,15.02,3.02,2.03,6.71,3.67,8.72,6.47,6.62,9.21,16.44,9.82,26.11,10.17,3.82.14,8.31-1.55,11.49-3.82,9.5-6.76,14.85-16.19,13.37-28.1-.69-5.54-1.64-12.76-5.31-15.87-7.8-6.61-14.34-14.53-23.99-19.6-13.51-7.1-25.14-17.68-37.97-26.17-8.53-5.64-18.27-7.92-27.83-2.76-10.88,5.87-17.48,14.92-16.88,29.11Zm.34-165.48c.39,8.62,4.47,15.65,11.01,20.39,6.96,5.04,14.6,7.87,24.22,5.37,14.54-3.78,24.62-14.55,37.13-21.41,9.25-5.08,17.06-12.89,25.2-19.84,4.1-3.51,8.48-7.29,11.05-11.89,5.88-10.52,2.12-25.22-6.91-33.5-8.68-7.95-18.44-9.3-28.53-4.53-8.57,4.04-16.6,9.37-24.55,14.6-10.63,7-20.92,14.51-31.42,21.7-10.3,7.05-16.64,16.34-17.19,29.11Z"/>
  <path d="m620.61,211.62c-7.03,1.3-14.41-1.65-17.9-7.88-8.67-15.51-23.45-21.03-39.41-24.39-10.55-2.22-21.41-.48-30.59,4.2-9.77,4.98-20.34,9.91-26.33,20.39-1.84,3.22-4.82,5.82-7.48,8.5-.55.56-2.71.61-2.92.23-1.04-1.89-2.8-4.42-2.23-5.96,1.47-3.99,3.21-8.58,6.31-11.13,8.07-6.63,14.82-15.16,25.45-18.4,6.11-1.86,11.83-5.3,18.02-6.47,13.31-2.51,26.44-1.17,38.91,4.69,3.6,1.69,7.34,3.07,10.93,4.78,1.62.78,3.44,1.72,4.45,3.12,6.06,8.37,15.87,13.61,19.8,23.77.63,1.62,1.94,2.97,2.99,4.55Z"/>
  <path class="cls-1" d="m170.3,132.7c0,.97,0,2.62,0,4.27,0,27.66,0,55.32-.03,82.99,0,8.07-.14,7.69-7.95,10-25.45,7.54-50.78,4.51-75.85-1.23-18-4.12-35-11.39-50.72-21.26-1.35-.85-2.57-3.12-2.57-4.74-.07-37.99.03-75.98.12-113.98,0-.59.27-1.19.27-1.2,11.13,6.92,21.68,14.9,33.39,20.37,12.52,5.84,25.87,10.5,39.34,13.52,20.81,4.66,42.03,7.49,64,11.25Z"/>
  <path class="cls-1" d="m992.93,161.81c5.96,9.62,9.88,20.02,11.38,31.03,2.25,16.42,5.19,32.95,5.21,49.44.26,219.97.06,439.94-.04,659.92-.02,33.33-.16,66.66-.24,99.99,0,1.81,0,3.61,0,5.85h-16.3V161.81Z"/>
  <path class="cls-1" d="m33.29,242.59c43.46,23.86,88.13,34.44,137.01,21.87,0,8.93,0,17.21,0,25.5,0,3.16,0,6.33,0,9.49,0,10.15,0,10.11-9.72,13.47-16.42,5.68-33.44,6.82-50.62,6.85-18.5.03-36.38-3.68-53.68-9.8-7.44-2.64-14.3-6.97-21.32-10.72-.88-.47-1.6-2.11-1.61-3.22-.1-17.46-.07-34.93-.07-53.44Z"/>
  <path class="cls-1" d="m33.86,401.59c45.37,19.77,90.3,19.37,136.45,9.46,0,9.12,0,18.53,0,27.94,0,10.46.23,11.22-9.65,14.31-10.55,3.3-21.5,5.79-32.46,7.17-17.1,2.16-34.34.57-51.01-3.26-14.48-3.33-29.01-7.56-41.34-16.65-1.17-.86-2.48-2.51-2.48-3.8,0-11.24.28-22.48.5-35.17Z"/>
  <path class="cls-1" d="m33.34,540.88c45.03,19.25,90.06,23.52,136.93,10.06,0,10.37.15,20.46-.18,30.54-.04,1.34-2.38,2.89-3.95,3.85-8.86,5.36-18.87,7.16-28.85,8.98-20.92,3.82-41.62,2.24-62.32-2.14-13.66-2.89-26.31-8.05-38.43-14.72-1.28-.71-3.04-2.16-3.06-3.3-.23-10.77-.14-21.54-.14-33.26Z"/>
  <path class="cls-1" d="m170.32,931.31c0,9.48.07,18.59-.1,27.69-.02.93-1.25,2.09-2.2,2.71-13.65,8.87-29.16,12.28-44.94,13.31-13.37.87-26.96.43-40.3-.99-12.84-1.36-25.44-4.8-36.85-11.41-.14-.08-.28-.21-.44-.23-10.87-2.04-13.48-8.98-12.07-19.08.78-5.52.14-11.25.14-17.93,45.1,17.95,90.25,21.92,136.75,5.93Z"/>
  <path class="cls-1" d="m33,475.13c45.32,19.67,90.39,24.37,137.29,9.86,0,10.09.11,19.39-.13,28.68-.03,1.22-1.56,2.93-2.82,3.51-10.58,4.94-21.82,7.82-33.38,8.93-16.41,1.57-32.88,1.73-49.11-1.69-8.75-1.84-17.62-3.68-25.96-6.79-8.16-3.04-15.74-7.64-23.5-11.69-1.02-.53-2.27-1.86-2.29-2.85-.18-8.94-.1-17.88-.1-27.96Z"/>
  <path class="cls-1" d="m170.3,803.96c0,9.29.11,17.94-.12,26.58-.03,1.31-1.32,3.03-2.52,3.78-11.12,6.95-23.71,9.34-36.41,11.16-15.76,2.26-31.54,1.72-47.15-1.05-13.22-2.35-26.56-4.65-38.19-12.15-.42-.27-.85-.63-1.32-.7-10.87-1.57-12.42-8.76-11.39-18.04.58-5.24.1-10.6.1-16.86,44.9,18.73,90.08,22.61,136.99,7.28Z"/>
  <path class="cls-1" d="m170.02,345.82v28.66c-28.64,12.11-58.34,12.47-88.52,8.19-15.95-2.26-30.77-7.97-45.57-13.88-1.03-.41-2.43-1.68-2.45-2.58-.17-9.93-.11-19.86-.11-30.82,44.68,21.36,90.03,22.84,136.64,10.43Z"/>
  <path class="cls-1" d="m33.6,610.78c44.95,20.49,89.97,24.19,136.66,8.76,0,8.86.1,17.61-.12,26.36-.03,1.06-1.56,2.45-2.72,3.05-9.08,4.69-18.86,7.14-28.89,8.72-28.87,4.56-56.97.8-84.49-8.2-6.44-2.1-12.52-5.3-18.7-8.15-.81-.37-1.65-1.69-1.66-2.59-.12-8.97-.07-17.94-.07-27.96Z"/>
  <path class="cls-1" d="m33.59,861.66c45.07,19.9,90.2,22.48,136.89,8.35,0,7.59.23,15.53-.2,23.44-.08,1.46-2.59,3.26-4.35,4.09-11.97,5.6-24.6,8.64-37.76,10.07-25.72,2.78-50.7.09-74.98-8.82-5.3-1.94-10.59-3.95-15.73-6.27-1.54-.69-3.63-2.48-3.68-3.83-.33-8.62-.17-17.26-.17-27.03Z"/>
  <path class="cls-1" d="m170.33,742.25c0,7.97.18,15.79-.17,23.58-.06,1.43-2.05,3.16-3.57,4.06-11.58,6.89-24.54,9.13-37.66,10.48-23.45,2.42-46.47-.23-68.87-7.32-8.14-2.58-15.79-6.7-23.57-10.33-1.24-.58-2.73-2.26-2.77-3.48-.25-8.11-.13-16.23-.13-25.24,44.86,20.22,89.87,23.56,136.73,8.25Z"/>
  <path class="cls-1" d="m33.84,674.04c44.67,21.07,89.71,24.41,136.46,9.2,0,6.83.3,13.62-.21,20.36-.13,1.66-2.63,3.61-4.48,4.59-13.01,6.9-27.25,9.52-41.7,10.42-19.34,1.21-38.6-.27-57.17-6.11-10.05-3.16-19.72-7.58-29.44-11.7-1.47-.62-3.24-2.68-3.3-4.14-.34-7.29-.15-14.61-.15-22.62Z"/>
  <path d="m110.1,75q-1.1-15.22,13.03-15.23c116.97.03,233.93.02,350.9.09,165.78.1,331.56.26,497.33.4,6.43,0,8.68,2.18,8.95,8.63.17,4.01-2.48,6.78-6.82,6.83-8,.08-16,.02-23.99.02-207.27-.01-414.55,0-621.82-.06-70.81-.02-141.62-.27-212.43-.43-1.62,0-3.24-.16-5.15-.27Z"/>
  <path d="m137.6,31.15c0-4.21-.21-8.19.14-12.11.09-1.02,1.82-2.33,3.04-2.71,1.52-.47,3.3-.12,4.96-.12,277.11.02,554.22.04,831.33.06,2.13,0,4.26,0,6.7,0v14.88H137.6Z"/>
  <path class="cls-1" d="m505.46,480.48c12.2-4.66,23.18-8.85,34.14-13.06,2.46-.95,4.94-1.9,7.32-3.03,8.25-3.91,16.09-1.58,23.92,1.41,11.92,4.56,23.84,9.1,36.72,14.01-14.58,11.34-27.6,24.1-47.01,25.58-22.45,1.71-38.28-11.01-55.1-24.92Z"/>
  <path class="cls-1" d="m601.5,401.18c-10.13,4.81-19.52,9.33-28.97,13.74-4.48,2.09-9.02,4.07-13.62,5.87-1.43.56-3.39.97-4.71.44-13.08-5.18-26.09-10.57-39.1-15.94-.55-.23-.98-.75-2.04-1.6,4.65-2.91,8.98-5.45,13.14-8.24,7.54-5.05,15.15-10.04,22.43-15.45,6.75-5.02,16.47-4.35,23.63.74,9.52,6.76,19.13,13.38,29.24,20.44Z"/>
  <path class="cls-1" d="m918.82,937.61c-.44,10.71-4.29,19.28-13.83,25.41-10.26,6.6-19.69,14.47-29.84,21.24-9.08,6.05-18.3,12.09-28.1,16.81-9.81,4.73-19.7,3.4-28.36-3.98-5.84-4.98-10.93-10.61-11.93-18.39-.64-4.92-1.07-10.75.96-14.93,3.93-8.09,9.08-15.78,18.11-19.62,2.69-1.15,5.06-3.1,7.49-4.81,8.8-6.18,17.71-12.21,26.27-18.69,5.83-4.41,11.65-8.48,18.62-11.13,10.89-4.14,21.5-2.18,29.89,3.97,7.14,5.23,11.45,14.11,10.72,24.13Zm-29.53-27.99c-3.47.81-7.37.87-10.34,2.56-8.87,5.06-17.45,10.65-26.02,16.22-8.88,5.76-17.84,11.44-26.37,17.69-13.91,10.19-21.7,21.01-15.88,36.82,4.13,11.2,17,19.72,28.65,17.38,5-1.01,9.77-3.94,14.25-6.64,11.91-7.18,23.69-14.57,35.34-22.17,4.42-2.88,7.92-7.38,12.57-9.66,6.7-3.29,10.35-8.27,12.82-15,7.02-19.16-4.67-36.5-25.02-37.21Z"/>
  <path class="cls-1" d="m836.67,705.29c7.33-.64,13.14,2.5,18.85,6.55,5.08,3.61,10.77,6.33,16.01,9.73,4.56,2.97,8.79,6.43,13.28,9.51,7.76,5.32,16.13,9.9,23.32,15.9,17.1,14.24,13.62,39.86-3.21,49.06-10.62,5.81-21.6,4.84-31.64-1.77-15.74-10.37-31.28-21.05-46.76-31.81-4.33-3.01-8.57-6.38-12.12-10.24-8.91-9.7-9.91-18.98-3.65-31.08,5.26-10.18,13.58-16.75,25.92-15.85Zm80.07,65.88c.31-10.73-4.65-18.98-13-24.94-9.68-6.92-19.89-13.08-29.87-19.56-7.53-4.89-15.2-9.56-22.56-14.69-7.66-5.34-20.79-6.39-28.37-1-14.98,10.65-18.58,31.89-2.14,43.9,7.19,5.25,14.97,9.68,22.47,14.51.97.62,1.81,1.43,2.77,2.07,11.55,7.72,22.73,16.1,34.78,22.96,15.09,8.59,35.43-3.23,35.91-23.25Z"/>
  <path class="cls-1" d="m625.27,942.02c-.6-14.19,6-23.24,16.88-29.11,9.57-5.16,19.3-2.89,27.83,2.76,12.83,8.49,24.47,19.07,37.97,26.17,9.65,5.07,16.19,12.99,23.99,19.6,3.67,3.11,4.62,10.33,5.31,15.87,1.47,11.91-3.88,21.34-13.37,28.1-3.18,2.27-7.68,3.96-11.49,3.82-9.67-.35-19.49-.97-26.11-10.17-2.01-2.8-5.7-4.45-8.72-6.47-7.52-5.05-15.14-9.94-22.64-15.02-6.25-4.24-12.45-8.56-18.54-13.03-7.94-5.82-11.88-13.64-11.12-22.51Zm83.68,64.84c1.65,0,3.34.23,4.95-.04,16.25-2.7,26.5-20.8,20.08-37.56-2.2-5.74-7.77-8-11.21-12.23-7.58-9.3-18.52-13.85-27.5-21.12-4.49-3.63-9.58-6.51-14.4-9.72-3.17-2.11-6.5-4.02-9.48-6.37-9.55-7.5-25.23-11.44-36.5,1.74-7.89,9.22-10.78,27.19-3.3,34.69,7.66,7.68,16.76,13.99,25.6,20.39,5.48,3.97,11.77,6.8,17.43,10.54,4.66,3.07,9.41,6.26,13.26,10.24,5.9,6.11,13.15,8.27,21.08,9.42Z"/>
  <path class="cls-1" d="m625.62,776.54c.55-12.77,6.9-22.06,17.19-29.11,10.5-7.19,20.79-14.7,31.42-21.7,7.95-5.23,15.97-10.56,24.55-14.6,10.1-4.76,19.86-3.41,28.53,4.53,9.03,8.27,12.79,22.98,6.91,33.5-2.57,4.6-6.94,8.38-11.05,11.89-8.14,6.96-15.95,14.77-25.2,19.84-12.51,6.86-22.59,17.63-37.13,21.41-9.62,2.5-17.26-.33-24.22-5.37-6.54-4.74-10.62-11.78-11.01-20.39Zm28.07,25.07c3.79-1.05,7.91-1.48,11.3-3.28,6.41-3.41,12.44-7.56,18.56-11.5,15.05-9.68,29.94-19.6,42.54-32.48,2.61-2.67,5.46-5.63,6.72-9.01,5.79-15.48-1.38-25.95-15.71-32.78-4.41-2.1-9.13-2.73-13.49-.43-8.78,4.64-17.42,9.53-25.95,14.62-3.96,2.37-7.46,5.5-11.25,8.17-9.61,6.75-19.91,12.69-28.71,20.35-8.38,7.29-12.13,17.67-7.6,28.5,4.13,9.88,11.52,17.02,23.59,17.83Z"/>
  <path d="m889.28,909.61c20.35.71,32.04,18.05,25.02,37.21-2.46,6.73-6.11,11.71-12.82,15-4.65,2.28-8.15,6.78-12.57,9.66-11.65,7.59-23.43,14.99-35.34,22.17-4.48,2.7-9.25,5.63-14.25,6.64-11.64,2.34-24.52-6.18-28.65-17.38-5.83-15.8,1.96-26.62,15.88-36.82,8.53-6.25,17.49-11.93,26.37-17.69,8.57-5.57,17.15-11.16,26.02-16.22,2.97-1.69,6.86-1.76,10.34-2.56Zm1.01,12.13c-2.86.74-6.12.83-8.52,2.32-12.51,7.8-24.89,15.84-37.14,24.05-6.16,4.13-12.31,8.42-17.78,13.4-2.95,2.69-5.54,6.75-6.35,10.61-1.27,5.98,1.99,10.75,6.99,14.39,6.15,4.48,12.04,2.87,17.66-.59,4.06-2.5,7.5-6,11.51-8.6,14.65-9.51,30.02-17.95,43.01-29.86,4.59-4.21,6.55-10.25,4.51-15.64-2.25-5.95-7.44-9.56-13.89-10.06Z"/>
  <path d="m916.74,771.17c-.48,20.01-20.83,31.84-35.91,23.25-12.04-6.86-23.22-15.24-34.78-22.96-.96-.64-1.81-1.45-2.77-2.07-7.5-4.83-15.29-9.26-22.47-14.51-16.44-12.01-12.83-33.25,2.14-43.9,7.58-5.39,20.71-4.33,28.37,1,7.36,5.13,15.03,9.81,22.56,14.69,9.99,6.48,20.2,12.65,29.87,19.56,8.34,5.96,13.3,14.21,13,24.94Zm-79.29-52.44c-8.24.04-12.97,3.2-15.07,8.46-2.24,5.61-2.89,11.36,2.22,15.6,4.89,4.06,10.48,7.25,15.72,10.9,13.21,9.18,26.48,18.26,39.54,27.65,5.96,4.29,16.71,3.64,21.44-1.89,5.65-6.61,5.28-15.52-2.51-22.04-7.14-5.97-15.59-10.38-23.42-15.54-8.83-5.83-17.5-11.91-26.46-17.52-4.25-2.66-9.03-4.47-11.45-5.63Z"/>
  <path d="m708.96,1006.86c-7.93-1.15-15.18-3.32-21.08-9.42-3.84-3.98-8.6-7.16-13.26-10.24-5.66-3.74-11.95-6.57-17.43-10.54-8.83-6.41-17.94-12.72-25.6-20.39-7.48-7.5-4.59-25.47,3.3-34.69,11.27-13.18,26.95-9.24,36.5-1.74,2.99,2.34,6.31,4.25,9.48,6.37,4.82,3.22,9.92,6.09,14.4,9.72,8.97,7.27,19.91,11.82,27.5,21.12,3.44,4.22,9.02,6.48,11.21,12.23,6.42,16.77-3.82,34.87-20.08,37.56-1.61.27-3.3.04-4.95.04Zm-69.33-66.47c1.49,3.72,2,8.54,4.68,10.94,6.12,5.5,13.26,9.89,20.07,14.6,7.7,5.34,15.32,10.82,23.29,15.73,6.7,4.12,13.62,8.11,20.9,10.96,4.14,1.62,9.14.99,12.33-3.73,4.34-6.4,3.25-17.13-3.54-22.2-12.99-9.7-26.41-18.82-39.74-28.05-5.71-3.95-11.33-8.25-17.54-11.21-11.47-5.47-19.38-.06-20.45,12.96Z"/>
  <path d="m653.69,801.61c-12.07-.81-19.45-7.95-23.59-17.83-4.53-10.82-.78-21.21,7.6-28.5,8.8-7.66,19.1-13.6,28.71-20.35,3.79-2.66,7.29-5.8,11.25-8.17,8.52-5.09,17.17-9.99,25.95-14.62,4.37-2.31,9.09-1.68,13.49.43,14.33,6.83,21.5,17.3,15.71,32.78-1.26,3.38-4.11,6.34-6.72,9.01-12.59,12.88-27.49,22.8-42.54,32.48-6.12,3.94-12.15,8.08-18.56,11.5-3.39,1.8-7.51,2.23-11.3,3.28Zm68.08-65.04c.03-11.45-9.35-17.61-19.22-11.92-9.56,5.51-18.49,12.12-27.72,18.2-5.1,3.36-10.54,6.28-15.32,10.05-5.92,4.68-12.03,9.46-16.71,15.28-3.51,4.36-2.96,10.6.4,15.42,3.16,4.52,7.96,5.51,13.32,3.96,7.24-2.09,13.65-5.39,19.62-10.21,9.91-8.02,20.45-15.24,30.77-22.75,1.05-.76,2.28-1.34,3.5-1.8,7.51-2.83,11.34-8.26,11.36-16.23Z"/>
  <path class="cls-1" d="m890.29,921.75c6.45.5,11.64,4.11,13.89,10.06,2.04,5.39.09,11.43-4.51,15.64-13,11.91-28.36,20.35-43.01,29.86-4.01,2.6-7.45,6.1-11.51,8.6-5.62,3.46-11.51,5.07-17.66.59-4.99-3.64-8.26-8.4-6.99-14.39.82-3.85,3.4-7.92,6.35-10.61,5.46-4.98,11.61-9.26,17.78-13.4,12.25-8.21,24.63-16.25,37.14-24.05,2.39-1.49,5.65-1.58,8.52-2.32Z"/>
  <path class="cls-1" d="m837.45,718.73c2.41,1.16,7.19,2.97,11.45,5.63,8.97,5.61,17.63,11.69,26.46,17.52,7.83,5.16,16.28,9.57,23.42,15.54,7.8,6.52,8.16,15.43,2.51,22.04-4.72,5.53-15.47,6.18-21.44,1.89-13.06-9.39-26.33-18.47-39.54-27.65-5.24-3.64-10.83-6.84-15.72-10.9-5.11-4.24-4.46-9.99-2.22-15.6,2.1-5.26,6.84-8.42,15.07-8.46Z"/>
  <path class="cls-1" d="m639.63,940.39c1.06-13.02,8.98-18.42,20.45-12.96,6.22,2.97,11.83,7.26,17.54,11.21,13.33,9.23,26.76,18.35,39.74,28.05,6.8,5.08,7.88,15.8,3.54,22.2-3.19,4.71-8.2,5.35-12.33,3.73-7.29-2.85-14.2-6.84-20.9-10.96-7.97-4.9-15.59-10.39-23.29-15.73-6.81-4.72-13.94-9.1-20.07-14.6-2.68-2.4-3.19-7.22-4.68-10.94Z"/>
  <path class="cls-1" d="m721.78,736.57c-.02,7.98-3.85,13.4-11.36,16.23-1.22.46-2.45,1.03-3.5,1.8-10.31,7.51-20.86,14.73-30.77,22.75-5.97,4.83-12.37,8.13-19.62,10.21-5.36,1.54-10.16.56-13.32-3.96-3.36-4.82-3.91-11.06-.4-15.42,4.68-5.82,10.78-10.6,16.71-15.28,4.77-3.77,10.22-6.69,15.32-10.05,9.23-6.09,18.16-12.7,27.72-18.2,9.87-5.68,19.24.47,19.22,11.92Z"/>
</svg>